<svg width="12" height="12" viewBox="0 0 12 12" fill="none" xmlns="http://www.w3.org/2000/svg">
<path d="M1 7V3M1 7C1 8.10455 1.89543 9 3 9C4.10457 9 5 8.10455 5 7C5 5.89545 4.10457 5 3 5C1.89543 5 1 5.89545 1 7Z" stroke="#253F41" stroke-linecap="round" stroke-linejoin="round"/>
<path d="M11 7V3M11 7C11 8.10455 10.1046 9 9 9C7.89545 9 7 8.10455 7 7C7 5.89545 7.89545 5 9 5C10.1046 5 11 5.89545 11 7Z" stroke="#253F41" stroke-linecap="round" stroke-linejoin="round"/>
<path d="M7 7H5" stroke="#253F41" stroke-linecap="round" stroke-linejoin="round"/>
</svg>
