<svg width="200" height="40" viewBox="0 0 200 40" fill="none" xmlns="http://www.w3.org/2000/svg">
<path fillRule="evenodd" clip-rule="evenodd" d="M95.7173 0.970668C95.0373 0.32904 94.1306 0 92.9811 0C91.7182 0 90.6497 0.32904 89.7754 0.98712C88.9173 1.6452 88.3345 2.59942 88.0592 3.84977L85.9059 14.1158C87.1526 14.6094 88.5126 14.8562 89.9859 14.8232C91.7344 14.8068 93.1268 14.379 94.163 13.54C95.2316 12.7009 95.8144 11.4835 95.9277 9.88765C95.9925 9.0486 95.8792 8.34116 95.5554 7.73244C95.2477 7.14017 94.7135 6.71241 93.9525 6.51499C94.5516 6.25176 95.0696 5.85691 95.5068 5.36335C95.9601 4.85334 96.2354 4.31042 96.3487 3.7017C96.5915 2.51716 96.3811 1.6123 95.7173 0.970668ZM88.2211 12.6845L89.2087 8.01212C90.0506 7.76534 90.8116 7.63373 91.4592 7.61727C93.0782 7.60082 93.8877 8.27535 93.8877 9.65732C93.8877 10.7596 93.5478 11.5822 92.8678 12.1416C92.1878 12.7009 91.3297 12.9806 90.2773 13.0135C89.6135 13.0464 88.9173 12.9313 88.2211 12.6845ZM89.5649 6.30111L90.083 3.83332C90.2125 3.20814 90.5525 2.71458 91.0706 2.30328C91.6049 1.92488 92.1554 1.72746 92.7382 1.72746C93.3211 1.72746 93.7582 1.90843 94.0658 2.27038C94.3735 2.63232 94.4544 3.10943 94.3249 3.7017C94.2278 4.113 94.0658 4.45849 93.8392 4.73818C93.6125 5.03431 93.3049 5.24819 92.9487 5.39626C92.5763 5.56077 92.2363 5.67594 91.8963 5.7582C91.6164 5.82592 91.2926 5.89364 90.9249 5.97054L90.6821 6.02143C90.2125 6.12014 89.8402 6.2024 89.5649 6.30111Z" fill="white"/>
<path d="M5.18807 5.04583C4.34321 5.92244 3.59999 7.01062 3.05885 8.26359L0.206563 11.3895C0.525625 8.21037 1.93717 5.51432 3.75918 3.62383C5.5603 1.75502 7.86026 0.58092 10.0049 0.651202L8 2.03232L7.65726 3.22405C6.82565 3.61955 5.97535 4.22895 5.18807 5.04583Z" fill="white"/>
<path d="M2.19622 11.5959C2.31679 10.3943 2.62209 9.27502 3.05885 8.26359L0.206563 11.3895C-0.47851 18.2017 -0.0689993 31.6752 11.2378 39.5445L11.2398 39.5459C12.9871 40.7557 15.1518 39.3856 15.1713 37.3495L15.1713 37.3483C15.1899 35.133 15.3243 31.8016 15.8324 29.048C16.0883 27.6615 16.4252 26.5014 16.8435 25.7139C17.2752 24.9011 17.6354 24.7547 17.864 24.7556H17.8721C18.1052 24.7547 18.4675 24.9037 18.9003 25.7167C19.3201 26.505 19.6581 27.6661 19.9147 29.0533C20.4243 31.8084 20.5587 35.1395 20.5774 37.3484L20.5774 37.3495C20.5968 39.3856 22.7615 40.7557 24.5088 39.5459L24.5108 39.5445C35.8178 31.6752 36.2272 18.2017 35.5421 11.3895C35.223 8.21007 33.8112 5.51718 31.9891 3.62837C30.1875 1.76075 27.8886 0.588449 25.7465 0.651116L25.7437 0.651202C23.1861 0.733353 20.5592 1.39925 19.0131 1.86369L19.0059 1.86589C18.2681 2.09369 17.4805 2.09369 16.7427 1.86589L16.7334 1.86305C15.1779 1.39961 12.5629 0.733424 10.0049 0.651202L8 2.03232L7.65726 3.22405C8.46024 2.84227 9.24639 2.65962 9.94094 2.68248C12.2427 2.75642 14.6638 3.36452 16.1662 3.81194C17.2804 4.15488 18.4694 4.15477 19.5835 3.8116C21.0701 3.36522 23.5031 2.75674 25.8054 2.68256C27.222 2.64164 29.014 3.44755 30.5609 5.05105C32.0877 6.63382 33.2825 8.90588 33.5524 11.5959C34.2207 18.2404 33.7279 30.6652 23.3821 37.8668C23.2083 37.9869 23.0294 37.9815 22.8761 37.8938C22.7202 37.8047 22.5804 37.6192 22.5773 37.3309C22.5583 35.0888 22.4233 31.6134 21.8803 28.6778C21.6106 27.2198 21.2265 25.8146 20.6594 24.7495C20.106 23.7102 19.2179 22.7198 17.8681 22.7233C16.52 22.7197 15.6345 23.7112 15.0835 24.7486C14.5184 25.8125 14.1356 27.2162 13.8667 28.6734C13.3254 31.6068 13.1903 35.0817 13.1713 37.3304C13.1684 37.619 13.0285 37.8046 12.8726 37.8938C12.7193 37.9815 12.5404 37.9869 12.3666 37.8668C2.02072 30.6653 1.52798 18.2404 2.19622 11.5959Z" fill="white"/>
<path d="M8.87044 5.9543C9.26874 5.56916 9.89785 5.58325 10.2791 5.98452L10.2912 5.99659C10.3053 6.01041 10.3312 6.03523 10.3691 6.06924C10.445 6.13728 10.5688 6.242 10.7424 6.36914C11.0895 6.62332 11.6356 6.96724 12.3957 7.28745C13.9084 7.92464 16.3051 8.48349 19.7263 8.01307C21.2841 7.79858 22.3585 7.42352 23.104 7.06296C23.7712 6.74031 24.1935 6.42246 24.5212 6.1758C24.5596 6.14686 24.5968 6.1189 24.6329 6.09203C25.0784 5.76031 25.7041 5.85837 26.0306 6.31105C26.357 6.76373 26.2605 7.39961 25.815 7.73133C25.7829 7.75521 25.7482 7.78143 25.7107 7.80974C25.3733 8.06427 24.8123 8.48753 23.9635 8.89804C23.0205 9.35413 21.7453 9.78597 19.9948 10.027C16.2231 10.5456 13.4693 9.93971 11.6298 9.16484C10.7139 8.77902 10.0335 8.35508 9.5731 8.01791C9.34297 7.84938 9.16783 7.70255 9.04564 7.59296C8.98454 7.53816 8.93665 7.49264 8.9017 7.45834C8.88422 7.44119 8.86998 7.42683 8.85893 7.41552L8.84476 7.40085L8.83946 7.39528L8.83726 7.39295L8.83627 7.3919C8.83627 7.3919 8.83537 7.39093 9.54033 6.70925L8.83536 7.39092C8.45464 6.98436 8.47035 6.34117 8.87044 5.9543Z" fill="white"/>
<path d="M62.0411 14.4946H59.7744L61.0373 8.32515H54.8202L53.5412 14.4946H51.2907L54.1888 0.674971H56.4392L55.2735 6.21929H61.4906L62.6563 0.674971H64.923L62.0411 14.4946Z" fill="white"/>
<path fillRule="evenodd" clip-rule="evenodd" d="M74.0543 11.6478L75.301 5.65927C74.1353 5.067 72.8886 4.77086 71.561 4.77086C70.0067 4.73796 68.6791 5.14926 67.5458 6.00476C66.4125 6.86026 65.6839 8.06126 65.3277 9.60775C65.0039 11.0391 65.1334 12.2401 65.6515 13.1943C66.1696 14.1485 67.1249 14.6256 68.501 14.6256C69.2134 14.6256 69.9096 14.4282 70.5734 14.0662C71.2372 13.7043 71.7715 13.1943 72.1601 12.5527L72.0791 12.9475C71.9334 13.6714 72.0953 14.1485 72.5648 14.3459C73.0343 14.5433 73.682 14.5762 74.4915 14.4282L74.7991 12.964C74.3134 13.0133 74.0381 12.9146 73.9734 12.6678C73.8924 12.421 73.9248 12.0755 74.0543 11.6478ZM73.0182 6.90962L72.4353 9.70646C72.2086 10.5949 71.7877 11.3188 71.1886 11.8781C70.5572 12.4375 69.861 12.7172 69.0839 12.7172C67.5458 12.7172 67.0115 11.6971 67.4487 9.6242C67.6753 8.62063 68.1287 7.84738 68.7763 7.32092C69.4401 6.778 70.2172 6.51477 71.1401 6.51477C71.8524 6.51477 72.4839 6.64639 73.0182 6.90962Z" fill="white"/>
<path d="M77.7134 7.09067L77.9239 5.52773C78.9438 5.03417 80.1419 4.77093 81.5181 4.77093C82.4248 4.77093 83.1857 4.95191 83.7848 5.3303C84.3838 5.7087 84.6914 6.26807 84.6914 7.04131C84.6914 8.27521 84.0762 9.04845 82.8295 9.37749C83.3152 9.50911 83.7038 9.73944 83.979 10.0849C84.2543 10.4304 84.4 10.8582 84.4 11.3682C84.4 12.5034 83.9305 13.3424 82.9914 13.9018C82.0524 14.4612 80.9353 14.7244 79.64 14.7244C78.1181 14.7244 76.8877 14.3954 75.9648 13.7537L76.4667 12.0098C76.7258 12.2566 77.1791 12.4705 77.8105 12.6514C78.4419 12.8324 79.0734 12.9147 79.6886 12.9147C80.401 12.9147 81 12.7831 81.4695 12.5363C81.9391 12.2895 82.1819 11.8782 82.1819 11.3188C82.1819 11.0885 82.1172 10.8911 82.0038 10.743C81.8905 10.5949 81.7124 10.4798 81.4857 10.414C81.2591 10.3482 81.0324 10.2988 80.8381 10.2824C80.6438 10.2659 80.401 10.2494 80.0934 10.2494H78.7172L79.0248 8.76877H80.3038C80.6115 8.76877 80.8705 8.75232 81.081 8.73586C81.2915 8.70296 81.5019 8.6536 81.7448 8.57135C81.9714 8.48909 82.1495 8.34102 82.2791 8.14359C82.4086 7.94617 82.4572 7.69939 82.4572 7.3868C82.4572 6.72872 81.9067 6.39968 80.7895 6.39968C79.5915 6.41613 78.5715 6.64646 77.7134 7.09067Z" fill="white"/>
<path fillRule="evenodd" clip-rule="evenodd" d="M107.552 5.65927L106.305 11.6478C106.176 12.0755 106.143 12.421 106.224 12.6678C106.289 12.9146 106.564 13.0133 107.05 12.964L106.743 14.4282C105.933 14.5762 105.285 14.5433 104.816 14.3459C104.346 14.1485 104.184 13.6714 104.33 12.9475L104.411 12.5527C104.023 13.1943 103.488 13.7043 102.824 14.0662C102.161 14.4282 101.464 14.6256 100.752 14.6256C99.3759 14.6256 98.4207 14.1485 97.9026 13.1943C97.3845 12.2401 97.255 11.0391 97.5788 9.60775C97.935 8.06126 98.6635 6.86026 99.7969 6.00476C100.93 5.14926 102.258 4.73796 103.812 4.77086C105.14 4.77086 106.386 5.067 107.552 5.65927ZM104.686 9.70646L105.269 6.90962C104.735 6.64639 104.104 6.51477 103.391 6.51477C102.468 6.51477 101.691 6.778 101.027 7.32092C100.38 7.84738 99.9264 8.62063 99.6997 9.6242C99.2626 11.6971 99.7969 12.7172 101.335 12.7172C102.112 12.7172 102.808 12.4375 103.44 11.8781C104.039 11.3188 104.46 10.5949 104.686 9.70646Z" fill="white"/>
<path d="M109.123 14.4945H111.163L111.988 10.5295H116.522L116.165 12.1254C115.939 13.2277 116.068 13.9516 116.554 14.3135C117.04 14.6754 117.833 14.7413 118.902 14.5109C119.031 13.787 119.128 13.2935 119.193 13.0467C118.691 13.1125 118.383 13.0631 118.27 12.9151C118.157 12.7835 118.157 12.4709 118.254 11.9938L119.711 5.00167H117.655L116.894 8.65401H112.393L112.701 7.18979C112.911 6.18621 112.765 5.51168 112.28 5.18264C111.794 4.8536 111.001 4.7878 109.932 5.01812C109.919 5.12502 109.884 5.30789 109.837 5.55791L109.803 5.74201C109.773 5.89888 109.75 6.0354 109.731 6.15003C109.708 6.2876 109.691 6.39413 109.673 6.4659C110.175 6.41654 110.466 6.4659 110.58 6.63042C110.677 6.77849 110.677 7.09108 110.564 7.55173L109.123 14.4945Z" fill="white"/>
<path d="M131.207 13.1453L130.931 14.5272C130.073 14.7247 129.393 14.6917 128.891 14.445C128.389 14.1982 128.211 13.6882 128.341 12.9478C127.531 14.1159 126.301 14.7082 124.666 14.7082C123.419 14.7082 122.561 14.3463 122.108 13.6059C121.654 12.8656 121.541 11.8785 121.816 10.6446L122.529 7.25545C122.609 6.8935 122.577 6.63027 122.464 6.49866C122.334 6.36704 122.059 6.33414 121.622 6.38349L121.913 5.01798C122.966 4.8041 123.727 4.85346 124.229 5.14959C124.714 5.44573 124.86 6.12026 124.633 7.17319L123.937 10.5623C123.775 11.352 123.808 11.9443 124.034 12.3556C124.261 12.7669 124.747 12.9643 125.475 12.9643C126.171 12.9643 126.819 12.734 127.418 12.2898C128.017 11.8456 128.389 11.2368 128.551 10.4965L129.717 4.96862H131.838L130.462 11.5823C130.3 12.2075 130.235 12.6353 130.3 12.8656C130.348 13.0959 130.656 13.1946 131.207 13.1453Z" fill="white"/>
<path fillRule="evenodd" clip-rule="evenodd" d="M141.034 13.935L141.342 12.2404C140.225 12.7176 139.14 12.9479 138.104 12.9479C137.035 12.9808 136.242 12.734 135.724 12.2075C135.189 11.6975 135.044 10.9407 135.27 9.97007C136.145 10.5788 137.197 10.8585 138.46 10.7927C139.464 10.7598 140.37 10.513 141.147 10.0359C141.925 9.57522 142.426 8.86779 142.653 7.93002C142.896 6.92645 142.637 6.13675 141.892 5.56093C141.131 4.98511 140.208 4.70543 139.107 4.73833C137.731 4.75479 136.501 5.16609 135.448 5.93933C134.396 6.71257 133.7 7.89712 133.36 9.47651C133.004 11.1382 133.198 12.4379 133.959 13.3592C134.72 14.2805 135.934 14.7082 137.602 14.6589C138.994 14.5931 140.144 14.3628 141.034 13.935ZM136.857 9.08166C136.355 8.95005 135.983 8.75262 135.724 8.52229C136.306 7.15678 137.326 6.46579 138.784 6.41644C139.35 6.41644 139.836 6.54805 140.225 6.77838C140.613 7.00871 140.743 7.38711 140.597 7.89712C140.484 8.34132 140.208 8.68681 139.755 8.91714C139.302 9.14747 138.832 9.26263 138.346 9.26263C137.845 9.27909 137.359 9.21328 136.857 9.08166Z" fill="white"/>
<path fillRule="evenodd" clip-rule="evenodd" d="M58.0745 23.691C59.224 23.691 60.1307 24.0201 60.8107 24.6617C61.4745 25.3033 61.6849 26.2082 61.4421 27.3927C61.3288 28.0015 61.0535 28.5444 60.6002 29.0544C60.163 29.548 59.645 29.9428 59.0459 30.206C59.7907 30.4364 60.325 30.8477 60.6488 31.4564C60.9726 32.0651 61.0859 32.7725 61.0211 33.6116C60.9078 35.2074 60.325 36.4249 59.2564 37.2639C58.204 38.103 56.8116 38.5307 55.0631 38.5472C53.6059 38.5472 52.246 38.3004 50.9993 37.8069L53.1526 27.5408C53.4279 26.2905 53.9945 25.3362 54.8688 24.6782C55.7269 24.0201 56.7955 23.691 58.0745 23.691ZM54.3021 31.7032L53.3145 36.3755C54.0107 36.6223 54.7069 36.7375 55.3707 36.7046C56.4231 36.6717 57.2812 36.392 57.9612 35.8326C58.6412 35.2733 58.9812 34.4506 58.9812 33.3484C58.9812 31.9664 58.1716 31.2919 56.5526 31.3083C55.8888 31.3248 55.144 31.4564 54.3021 31.7032ZM55.1764 27.5244L54.6583 29.9922C54.9336 29.8934 55.3059 29.8112 55.7755 29.7125L56.0184 29.6616C56.3859 29.5847 56.7099 29.5169 56.9897 29.4492C57.3297 29.367 57.6697 29.2518 58.0421 29.0873C58.3983 28.9392 58.7059 28.7254 58.9326 28.4292C59.1592 28.1495 59.3211 27.804 59.4183 27.3927C59.5478 26.8005 59.4669 26.3234 59.1592 25.9614C58.8516 25.5995 58.4145 25.4185 57.8316 25.4185C57.2488 25.4185 56.6983 25.6159 56.164 25.9943C55.6297 26.4056 55.3059 26.8992 55.1764 27.5244Z" fill="white"/>
<path fillRule="evenodd" clip-rule="evenodd" d="M71.3993 35.3388L72.6459 29.3503C71.4802 28.758 70.2336 28.4619 68.9059 28.4619C67.3517 28.429 66.0241 28.8403 64.8907 29.6958C63.7574 30.5513 63.0288 31.7523 62.6727 33.2988C62.3489 34.7301 62.4784 35.9311 62.9965 36.8853C63.5146 37.8395 64.4698 38.3167 65.846 38.3167C66.5583 38.3167 67.2545 38.1192 67.9183 37.7573C68.5821 37.3953 69.1164 36.8853 69.505 36.2437L69.424 36.6385C69.2783 37.3624 69.4402 37.8395 69.9098 38.037C70.3793 38.2344 71.0269 38.2673 71.8364 38.1192L72.144 36.655C71.6583 36.7044 71.3831 36.6056 71.3183 36.3589C71.2374 36.1121 71.2697 35.7666 71.3993 35.3388ZM70.3469 30.6007L69.764 33.3975C69.5536 34.2859 69.1326 35.0098 68.5174 35.5692C67.886 36.1285 67.1898 36.4082 66.4126 36.4082C64.8745 36.4082 64.3403 35.3882 64.7774 33.3152C65.0041 32.3117 65.4574 31.5384 66.105 31.012C66.7688 30.469 67.546 30.2058 68.4688 30.2058C69.1812 30.2058 69.8126 30.3374 70.3469 30.6007Z" fill="white"/>
<path d="M89.9859 36.8203L89.6944 38.2187C89.1602 38.3338 88.6744 38.3832 88.2049 38.3832C87.7354 38.3832 87.3954 38.2187 87.1364 37.9061C86.8773 37.5935 86.8126 37.1822 86.9259 36.6393C86.084 37.7909 84.9183 38.3832 83.445 38.3832C82.7973 38.3832 82.2469 38.2351 81.8097 37.9225C81.3726 37.61 81.0974 37.1658 80.9678 36.5899C79.964 37.8403 78.7174 38.449 77.2117 38.4326C75.0422 38.4326 74.2488 37.0506 74.8479 34.2702L75.4955 31.2266C75.6412 30.8153 75.6574 30.5027 75.5603 30.2724C75.4631 30.042 75.1393 29.9762 74.5888 30.042L74.8641 28.7259C75.9488 28.4791 76.7583 28.5285 77.2764 28.8575C77.7945 29.1865 77.9402 29.894 77.7298 30.9304L77.0336 34.2702C76.6612 35.8825 77.0498 36.6722 78.1993 36.6722C78.8631 36.6557 79.4621 36.4254 79.9802 35.9812C80.5145 35.537 80.8545 34.9447 81.0164 34.2044L82.1821 28.6765H84.2545L83.0888 34.2044C82.7326 35.8331 83.1373 36.6557 84.3192 36.6557C84.9992 36.6393 85.6307 36.409 86.1973 35.9483C86.764 35.4877 87.1364 34.8954 87.2821 34.155L88.4316 28.6601H90.5687L89.2087 35.1586C89.0468 35.7838 88.9983 36.228 89.0792 36.4912C89.1602 36.7545 89.4678 36.8532 89.9859 36.8203Z" fill="white"/>
<path fillRule="evenodd" clip-rule="evenodd" d="M99.813 37.6256L100.121 35.931C99.0034 36.4081 97.9187 36.6384 96.8825 36.6384C95.8139 36.6713 95.0206 36.4246 94.5025 35.8981C93.9844 35.3881 93.8225 34.6313 94.0492 33.6606C94.9235 34.2694 95.9758 34.549 97.2387 34.4832C98.2425 34.4503 99.1492 34.2035 99.9263 33.7264C100.703 33.2658 101.205 32.5583 101.432 31.6206C101.675 30.617 101.416 29.8273 100.671 29.2515C99.9101 28.6757 98.9873 28.396 97.8863 28.4289C96.5101 28.4454 95.2797 28.8567 94.2273 29.6299C93.1749 30.4031 92.4787 31.5877 92.1387 33.1671C91.7825 34.8287 91.9768 36.1284 92.7378 37.0497C93.4987 37.9711 94.713 38.3988 96.3806 38.3495C97.773 38.2836 98.9225 38.0533 99.813 37.6256ZM95.6358 32.7722C95.1339 32.6406 94.7616 32.4432 94.5025 32.2129C95.0854 30.8473 96.1054 30.1564 97.5625 30.107C98.1292 30.107 98.6149 30.2386 99.0034 30.4689C99.392 30.6993 99.5215 31.0777 99.3758 31.5877C99.2625 32.0319 98.9873 32.3774 98.5339 32.6077C98.0806 32.838 97.6111 32.9532 97.1254 32.9532C96.6235 32.9697 96.1377 32.9038 95.6358 32.7722Z" fill="white"/>
<path d="M112.571 36.8367L112.296 38.2186C111.438 38.4161 110.758 38.3832 110.256 38.1364C109.754 37.8896 109.576 37.3796 109.706 36.6393C108.896 37.8073 107.666 38.3996 106.031 38.3996C104.784 38.3996 103.926 38.0377 103.472 37.2973C103.019 36.557 102.906 35.5699 103.181 34.336L103.893 30.9469C103.974 30.5849 103.942 30.3217 103.829 30.1901C103.699 30.0585 103.424 30.0256 102.987 30.0749L103.278 28.7094C104.331 28.4955 105.091 28.5449 105.593 28.841C106.079 29.1371 106.225 29.8117 105.998 30.8646L105.302 34.2537C105.14 35.0434 105.172 35.6357 105.399 36.047C105.626 36.4583 106.111 36.6557 106.84 36.6557C107.536 36.6557 108.184 36.4254 108.783 35.9812C109.382 35.537 109.754 34.9282 109.916 34.1879L111.082 28.66H113.203L111.827 35.2737C111.665 35.8989 111.6 36.3267 111.665 36.557C111.713 36.7873 112.021 36.886 112.571 36.8367Z" fill="white"/>
<path d="M106.192 24.4154L107.552 24.2509C107.455 25.1229 107.844 25.5671 108.734 25.5671C109.69 25.5671 110.353 25.1229 110.742 24.2509C111.551 24.3332 112.037 24.3825 112.215 24.4154C111.616 26.2251 110.402 27.1135 108.589 27.1135C107.763 27.1135 107.115 26.8668 106.662 26.3897C106.209 25.9126 106.047 25.2709 106.192 24.4154Z" fill="white"/>
<path d="M123.759 32.3778H122.788L123.111 30.8642C123.322 29.8113 123.192 29.1368 122.69 28.8406C122.205 28.5445 121.428 28.4951 120.375 28.709L120.084 30.0745C120.521 30.0252 120.796 30.0581 120.926 30.1897C121.039 30.3213 121.071 30.5845 120.99 30.9465L119.501 38.1854H121.606L122.464 34.1053H123.403C123.872 34.1053 124.228 34.0724 124.488 34.0066L126.447 38.1854H128.6L128.632 37.9715L126.333 33.4472C128.163 32.6575 129.312 31.0617 129.749 28.6432H127.742C127.24 31.1275 125.912 32.3778 123.759 32.3778Z" fill="white"/>
<path d="M138.492 30.518H135.27L133.942 34.7955C133.473 36.3091 132.922 37.2962 132.275 37.7733C131.627 38.2504 130.591 38.382 129.166 38.1682L129.539 36.5888C130.267 36.6875 130.769 36.6052 131.061 36.3255C131.352 36.0458 131.611 35.5029 131.87 34.7132L133.829 28.6589H140.953L138.978 38.1682H136.905L138.492 30.518Z" fill="white"/>
<path d="M151.849 38.2183L152.124 36.8363C151.574 36.8857 151.283 36.7869 151.218 36.5566C151.153 36.3263 151.218 35.8985 151.38 35.2734L152.756 28.6597H150.635L149.469 34.1875C149.307 34.9279 148.935 35.5366 148.336 35.9808C147.737 36.425 147.089 36.6553 146.393 36.6553C145.664 36.6553 145.179 36.4579 144.952 36.0466C144.725 35.6353 144.693 35.043 144.855 34.2533L145.551 30.8642C145.778 29.8113 145.632 29.1368 145.146 28.8406C144.644 28.5445 143.883 28.4951 142.831 28.709L142.54 30.0745C142.977 30.0252 143.252 30.0581 143.382 30.1897C143.495 30.3213 143.527 30.5845 143.446 30.9465L142.734 34.3356C142.459 35.5695 142.572 36.5566 143.025 37.297C143.479 38.0373 144.337 38.3992 145.583 38.3992C147.219 38.3992 148.449 37.807 149.259 36.6389C149.129 37.3792 149.307 37.8892 149.809 38.136C150.311 38.3828 150.991 38.4157 151.849 38.2183Z" fill="white"/>
<path d="M156.22 38.1855H154.18L155.621 31.2428C155.735 30.7821 155.735 30.4695 155.638 30.3215C155.524 30.1569 155.233 30.1076 154.731 30.1569C154.749 30.0851 154.766 29.9789 154.789 29.8411C154.808 29.7264 154.831 29.5899 154.86 29.4331L154.895 29.2506C154.942 28.9997 154.977 28.8163 154.99 28.7092C156.059 28.4788 156.852 28.5446 157.338 28.8737C157.823 29.2027 157.969 29.8773 157.759 30.8808L157.451 32.3451H161.952L162.713 28.6927H164.769L163.312 35.6848C163.215 36.1619 163.215 36.4745 163.328 36.6061C163.441 36.7542 163.749 36.8035 164.251 36.7377C164.186 36.9845 164.089 37.4781 163.959 38.202C162.891 38.4323 162.098 38.3665 161.612 38.0045C161.126 37.6426 160.997 36.9187 161.223 35.8164L161.579 34.2206H157.046L156.22 38.1855Z" fill="white"/>
<path d="M175.973 38.2183L176.248 36.8363C175.714 36.8857 175.406 36.7869 175.341 36.5566C175.277 36.3263 175.341 35.8985 175.503 35.2734L176.879 28.6597H174.759L173.593 34.1875C173.431 34.9279 173.059 35.5366 172.459 35.9808C171.86 36.425 171.213 36.6553 170.517 36.6553C169.788 36.6553 169.302 36.4579 169.076 36.0466C168.849 35.6353 168.817 35.043 168.979 34.2533L169.675 30.8642C169.901 29.8113 169.756 29.1368 169.27 28.8406C168.768 28.5445 168.007 28.4951 166.955 28.709L166.663 30.0745C167.1 30.0252 167.376 30.0581 167.505 30.1897C167.619 30.3213 167.651 30.5845 167.57 30.9465L166.858 34.3356C166.582 35.5695 166.696 36.5566 167.149 37.297C167.602 38.0373 168.46 38.3992 169.707 38.3992C171.342 38.3992 172.573 37.807 173.382 36.6389C173.253 37.3792 173.431 37.8892 173.933 38.136C174.435 38.3828 175.115 38.4157 175.973 38.2183Z" fill="white"/>
<path d="M181.559 32.3778H182.53C184.683 32.3778 186.011 31.1275 186.513 28.6432H188.521C188.083 31.0617 186.934 32.6575 185.104 33.4472L187.403 37.9715L187.371 38.1854H185.218L183.259 34.0066C183 34.0724 182.643 34.1053 182.174 34.1053H181.235L180.377 38.1854H178.272L179.762 30.9465C179.842 30.5845 179.81 30.3213 179.697 30.1897C179.567 30.0581 179.292 30.0252 178.855 30.0745L179.146 28.709C180.199 28.4951 180.976 28.5445 181.462 28.8406C181.963 29.1368 182.093 29.8113 181.882 30.8642L181.559 32.3778Z" fill="white"/>
<path d="M199.093 38.2183L199.368 36.8363C198.834 36.8857 198.526 36.7869 198.461 36.5566C198.396 36.3263 198.461 35.8985 198.623 35.2734L199.999 28.6597H197.878L196.713 34.1875C196.551 34.9279 196.178 35.5366 195.579 35.9808C194.98 36.425 194.333 36.6553 193.636 36.6553C192.908 36.6553 192.422 36.4579 192.195 36.0466C191.969 35.6353 191.936 35.043 192.098 34.2533L192.795 30.8642C193.021 29.8113 192.875 29.1368 192.39 28.8406C191.888 28.5445 191.127 28.4951 190.075 28.709L189.783 30.0745C190.22 30.0252 190.495 30.0581 190.625 30.1897C190.738 30.3213 190.771 30.5845 190.69 30.9465L189.977 34.3356C189.702 35.5695 189.816 36.5566 190.269 37.297C190.722 38.0373 191.58 38.3992 192.827 38.3992C194.462 38.3992 195.693 37.807 196.502 36.6389C196.373 37.3792 196.551 37.8892 197.053 38.136C197.555 38.3828 198.235 38.4157 199.093 38.2183Z" fill="white"/>
</svg>
