<svg width="28" height="28" viewBox="0 0 28 28" fill="none" xmlns="http://www.w3.org/2000/svg">
<path d="M3.5 18.6667V9.33333C3.5 6.11168 6.11168 3.5 9.33333 3.5H18.6667C21.8883 3.5 24.5 6.11168 24.5 9.33333V18.6667C24.5 21.8883 21.8883 24.5 18.6667 24.5H9.33333C6.11168 24.5 3.5 21.8883 3.5 18.6667Z" stroke="#2CB2BB" strokeWidth="1.5"/>
<path fillRule="evenodd" clip-rule="evenodd" d="M14.0004 7C12.1064 7 10.5662 8.56975 10.5662 10.5C10.5662 12.4302 12.1064 14 14.0004 14C15.8944 14 17.4347 12.4302 17.4347 10.5C17.4347 8.56975 15.8944 7 14.0004 7ZM14.0004 13.125C12.5804 13.125 11.4248 11.9472 11.4248 10.5C11.4248 9.05275 12.5804 7.875 14.0004 7.875C15.4205 7.875 16.5761 9.05275 16.5761 10.5C16.5761 11.9472 15.4205 13.125 14.0004 13.125Z" fill="#2CB2BB"/>
<path d="M13.2146 16.5693C11.9472 16.4002 10.7225 15.8202 9.75056 14.8304C9.58315 14.6597 9.58315 14.3824 9.75056 14.2117C9.91798 14.0411 10.1901 14.0411 10.3576 14.2117C12.3657 16.2592 15.6325 16.2592 17.6424 14.2117C17.8099 14.0411 18.082 14.0411 18.2494 14.2117C18.4169 14.3824 18.4169 14.6597 18.2494 14.8304C17.2784 15.82 16.0541 16.3999 14.7871 16.5692L17.3574 20.3114C17.4939 20.51 17.4467 20.7821 17.2526 20.9204C17.1762 20.9746 17.0912 21 17.0054 21C16.8706 21 16.7375 20.9353 16.6542 20.8136L14.0004 16.9505L11.3475 20.8136C11.2118 21.0114 10.944 21.0595 10.7499 20.9204C10.555 20.7821 10.5087 20.5091 10.6443 20.3114L13.2146 16.5693Z" fill="#2CB2BB"/>
<path fillRule="evenodd" clip-rule="evenodd" d="M14.0004 7C12.1064 7 10.5662 8.56975 10.5662 10.5C10.5662 12.4302 12.1064 14 14.0004 14C15.8944 14 17.4347 12.4302 17.4347 10.5C17.4347 8.56975 15.8944 7 14.0004 7ZM14.0004 13.125C12.5804 13.125 11.4248 11.9472 11.4248 10.5C11.4248 9.05275 12.5804 7.875 14.0004 7.875C15.4205 7.875 16.5761 9.05275 16.5761 10.5C16.5761 11.9472 15.4205 13.125 14.0004 13.125Z" stroke="#2CB2BB" strokeWidth="0.5"/>
<path d="M13.2146 16.5693C11.9472 16.4002 10.7225 15.8202 9.75056 14.8304C9.58315 14.6597 9.58315 14.3824 9.75056 14.2117C9.91798 14.0411 10.1901 14.0411 10.3576 14.2117C12.3657 16.2592 15.6325 16.2592 17.6424 14.2117C17.8099 14.0411 18.082 14.0411 18.2494 14.2117C18.4169 14.3824 18.4169 14.6597 18.2494 14.8304C17.2784 15.82 16.0541 16.3999 14.7871 16.5692L17.3574 20.3114C17.4939 20.51 17.4467 20.7821 17.2526 20.9204C17.1762 20.9746 17.0912 21 17.0054 21C16.8706 21 16.7375 20.9353 16.6542 20.8136L14.0004 16.9505L11.3475 20.8136C11.2118 21.0114 10.944 21.0595 10.7499 20.9204C10.555 20.7821 10.5087 20.5091 10.6443 20.3114L13.2146 16.5693Z" stroke="#2CB2BB" strokeWidth="0.5"/>
</svg>
