<svg width="28" height="28" viewBox="0 0 28 28" fill="none" xmlns="http://www.w3.org/2000/svg">
<path d="M16.3333 14L12.25 16.3333V11.6667L16.3333 14Z" fill="#2CB2BB" stroke="#2CB2BB" strokeWidth="1.5" stroke-linecap="round" stroke-linejoin="round"/>
<path d="M2.33325 14.8254V13.1745C2.33325 9.79656 2.33325 8.10762 3.38966 7.02091C4.44607 5.93419 6.10924 5.88715 9.43556 5.79307C11.0118 5.7485 12.6219 5.71655 13.9999 5.71655C15.378 5.71655 16.9881 5.7485 18.5643 5.79307C21.8906 5.88715 23.5538 5.93419 24.6102 7.02091C25.6666 8.10762 25.6666 9.79656 25.6666 13.1745V14.8254C25.6666 18.2033 25.6666 19.8923 24.6102 20.9789C23.5538 22.0656 21.8907 22.1127 18.5644 22.2068C16.9881 22.2514 15.378 22.2833 13.9999 22.2833C12.6219 22.2833 11.0117 22.2514 9.43545 22.2068C6.10918 22.1127 4.44605 22.0656 3.38965 20.9789C2.33325 19.8923 2.33325 18.2033 2.33325 14.8254Z" stroke="#2CB2BB" strokeWidth="1.5"/>
</svg>
