<svg width="12" height="12" viewBox="0 0 12 12" fill="none" xmlns="http://www.w3.org/2000/svg">
<g clip-path="url(#clip0_22_4334)">
<path d="M11 2.5L9.5 4M8 2.5H11H8ZM11 2.5L9.5 1L11 2.5Z" stroke="#253F41" stroke-linecap="round" stroke-linejoin="round"/>
<path d="M9.05902 7.351L6.99992 7.75C5.60907 7.0519 4.74992 6.25 4.24992 5L4.63489 2.93495L3.90718 1H2.03172C1.46794 1 1.02398 1.46589 1.10818 2.02334C1.31839 3.415 1.93818 5.93825 3.74992 7.75C5.65252 9.6526 8.39277 10.4782 9.90092 10.8063C10.4833 10.9331 10.9999 10.4787 10.9999 9.88275V8.0906L9.05902 7.351Z" stroke="#253F41" stroke-linecap="round" stroke-linejoin="round"/>
</g>
<defs>
<clipPath id="clip0_22_4334">
<rect width="12" height="12" fill="white"/>
</clipPath>
</defs>
</svg>
