<svg width="28" height="28" viewBox="0 0 28 28" fill="none" xmlns="http://www.w3.org/2000/svg">
<path d="M13.9999 18.6667C16.5772 18.6667 18.6666 16.5773 18.6666 14C18.6666 11.4227 16.5772 9.33333 13.9999 9.33333C11.4226 9.33333 9.33325 11.4227 9.33325 14C9.33325 16.5773 11.4226 18.6667 13.9999 18.6667Z" stroke="#2CB2BB" strokeWidth="1.5" stroke-linecap="round" stroke-linejoin="round"/>
<path d="M3.5 18.6667V9.33333C3.5 6.11168 6.11168 3.5 9.33333 3.5H18.6667C21.8883 3.5 24.5 6.11168 24.5 9.33333V18.6667C24.5 21.8883 21.8883 24.5 18.6667 24.5H9.33333C6.11168 24.5 3.5 21.8883 3.5 18.6667Z" stroke="#2CB2BB" strokeWidth="1.5"/>
<path d="M20.4167 7.59453L20.428 7.58203" stroke="#2CB2BB" strokeWidth="1.5" stroke-linecap="round" stroke-linejoin="round"/>
</svg>
