<svg width="20" height="20" viewBox="0 0 20 20" fill="none" xmlns="http://www.w3.org/2000/svg">
<path d="M17.0167 3.81671C16.5987 3.39719 16.1019 3.06433 15.5549 2.8372C15.0079 2.61008 14.4215 2.49316 13.8292 2.49316C13.237 2.49316 12.6505 2.61008 12.1036 2.8372C11.5566 3.06433 11.0598 3.39719 10.6417 3.81671L10.0001 4.46671L9.35841 3.81671C8.94034 3.39719 8.44357 3.06433 7.89659 2.8372C7.34961 2.61008 6.76317 2.49316 6.17091 2.49316C5.57864 2.49316 4.9922 2.61008 4.44522 2.8372C3.89824 3.06433 3.40147 3.39719 2.98341 3.81671C1.21674 5.58338 1.10841 8.56671 3.33341 10.8334L10.0001 17.5L16.6667 10.8334C18.8917 8.56671 18.7834 5.58338 17.0167 3.81671Z" stroke="white" strokeWidth="2" stroke-linecap="round" stroke-linejoin="round"/>
</svg>
