<svg width="40" height="40" viewBox="0 0 40 40" fill="none" xmlns="http://www.w3.org/2000/svg">
<path d="M5 26.6667V13.3333C5 8.73097 8.73097 5 13.3333 5H26.6667C31.269 5 35 8.73097 35 13.3333V26.6667C35 31.269 31.269 35 26.6667 35H13.3333C8.73097 35 5 31.269 5 26.6667Z" stroke="#2CB2BB" strokeWidth="1.5"/>
<path d="M25.0423 14.68L25.0422 14.68L25.0384 14.69L25.0384 14.6901L25.0384 14.6901L25.0383 14.6902L25.038 14.691L25.0361 14.6959L25.0276 14.7179C25.0199 14.7378 25.008 14.7682 24.9921 14.808C24.9603 14.8877 24.9126 15.0051 24.8503 15.1525C24.7256 15.4476 24.5428 15.8614 24.3124 16.3329C23.8496 17.2797 23.2127 18.4209 22.4855 19.305C22.47 19.3217 22.4549 19.3379 22.4402 19.3536V15.1567C22.4402 14.8263 22.4039 14.4099 22.1687 14.0693C21.8846 13.6581 21.4502 13.5361 21.0651 13.5361H17.6268C16.8143 13.5361 16.3201 14.204 16.3201 14.8305C16.3201 15.1689 16.4445 15.4253 16.5623 15.6098C16.6164 15.6946 16.6762 15.7747 16.7214 15.8354L16.7225 15.8368L16.7275 15.8435C16.7751 15.9073 16.8144 15.9601 16.8538 16.018C16.9878 16.2153 17.154 16.5145 17.1894 17.1586V20.3028C16.9819 20.0357 16.7464 19.6833 16.4962 19.2553C15.848 18.1465 15.1515 16.6169 14.6324 14.9802L14.6318 14.9785C14.5232 14.6389 14.3748 14.2549 14.0883 13.9694C13.7568 13.6389 13.3473 13.5361 12.9382 13.5361H10.7502C10.321 13.5361 9.88504 13.6466 9.57913 13.9922C9.2881 14.3209 9.25 14.7149 9.25 14.9561C9.25 15.2099 9.31612 15.5964 9.43103 16.0524C9.55094 16.5283 9.73778 17.133 10.0095 17.8431C10.5529 19.2631 11.4405 21.1171 12.8255 23.2191C14.7281 26.1742 17.4843 27.8933 20.1274 27.8933C20.827 27.8933 21.4412 27.8202 21.871 27.5082C22.3979 27.1256 22.4402 26.5613 22.4402 26.2221V24.0982C22.4402 24.0973 22.4402 24.0965 22.4402 24.0957C22.4811 24.1158 22.5307 24.1431 22.5899 24.18C22.8557 24.3458 23.2685 24.6774 23.8952 25.3309C24.2516 25.7169 24.5344 26.0505 24.7743 26.3382C24.8176 26.3902 24.8603 26.4416 24.9023 26.4922C25.0869 26.7145 25.2581 26.9208 25.4145 27.0905C25.6083 27.301 25.8259 27.5083 26.0904 27.6581C26.3735 27.8186 26.674 27.8933 27.004 27.8933H29.192C29.6157 27.8933 30.1237 27.7797 30.4596 27.3577C30.802 26.9274 30.7952 26.3927 30.6734 25.9416L30.671 25.9328L30.6684 25.9241C30.5355 25.4755 30.2541 24.989 29.9246 24.5063C29.5879 24.0132 29.1614 23.468 28.6891 22.8926C28.4103 22.5368 28.0699 22.1759 27.7927 21.882L27.7919 21.8811C27.4816 21.552 27.2936 21.3491 27.2234 21.2426L27.2151 21.23L27.2064 21.2178C27.1835 21.186 27.1672 21.1609 27.1556 21.1417C27.1727 21.1074 27.1977 21.0619 27.2366 20.9942L27.2559 20.9646C27.276 20.9337 27.3054 20.8885 27.3427 20.8307C27.4172 20.7151 27.5237 20.5489 27.6523 20.3453C27.9092 19.9385 28.2553 19.3805 28.6109 18.7777C28.9656 18.1764 29.3342 17.5228 29.6339 16.9264C29.9167 16.3637 30.1746 15.7821 30.2709 15.3313C30.3558 15.0113 30.4092 14.5421 30.1405 14.1262C29.8408 13.6623 29.3258 13.5361 28.8794 13.5361H26.6914C26.258 13.5361 25.8823 13.6648 25.5841 13.9089C25.2994 14.1418 25.1389 14.4359 25.0423 14.68ZM17.6799 20.8083C17.6799 20.8085 17.6776 20.8074 17.6727 20.8046C17.6775 20.8067 17.6799 20.8081 17.6799 20.8083ZM22.46 23.7991C22.4601 23.7992 22.4598 23.8 22.4594 23.8015C22.4598 23.7999 22.46 23.7991 22.46 23.7991Z" stroke="#2CB2BB" strokeWidth="1.5"/>
</svg>
