<svg width="36" height="36" viewBox="0 0 36 36" fill="none" xmlns="http://www.w3.org/2000/svg">
<path d="M18 36C22.8214 36 27.3214 34.1116 30.7366 30.7366C34.1518 27.3616 36 22.8214 36 18C36 13.1786 34.1116 8.67857 30.7366 5.26339C27.3616 1.84821 22.8214 0 18 0C13.1786 0 8.67857 1.84821 5.26339 5.26339C1.84821 8.67857 0 13.1786 0 18C0 22.8214 1.88839 27.3214 5.26339 30.7366C8.63839 34.1518 13.1786 36 18 36ZM18 1.40625C27.1607 1.40625 34.5938 8.83929 34.5938 18C34.5938 27.1607 27.1607 34.5938 18 34.5938C8.83929 34.5938 1.40625 27.1607 1.40625 18C1.40625 8.83929 8.83929 1.40625 18 1.40625ZM8.75893 27.4018H11.0491C11.6116 27.4018 12.0938 27.1607 12.4554 26.7991C13.058 27.4018 13.8616 27.7634 14.7455 27.7634H24.1071C26.2768 27.7634 27.6429 26.6384 27.8839 24.6295L29.1696 16.5938V16.5536C29.1696 14.7857 27.7232 13.3393 25.9554 13.3393H21.375V10.0848C21.375 8.59821 20.933 7.51339 20.0491 6.87053C18.683 5.86607 16.7946 6.42857 16.7143 6.46875L16.2321 6.62946V10.9687C16.2321 12.1741 15.6696 13.1786 14.5446 13.9821C13.6607 14.625 12.7366 14.9062 12.6964 14.9062L12.2545 15.0268C11.933 14.7455 11.5312 14.625 11.0491 14.625H8.75893C7.71429 14.625 6.87053 15.4687 6.87053 16.5134V25.5938C6.87053 26.558 7.71429 27.4018 8.75893 27.4018ZM15.308 15.1071C16.8348 14.0223 17.6384 12.5759 17.6384 10.9286V7.67411C18.0804 7.63393 18.7232 7.63393 19.2054 7.95536C19.6875 8.31696 19.9286 9 19.9286 10.0446V14.7054H25.9152C26.8795 14.7054 27.683 15.4687 27.7232 16.433L26.4777 24.4286V24.4687C26.4375 24.9509 26.2366 26.3571 24.1071 26.3571H14.7455C13.7411 26.3571 12.9375 25.5536 12.9375 24.5491V23.8259V16.4732C12.9375 16.3929 12.9375 16.3527 12.9375 16.2723L13.058 16.2321C13.0982 16.2321 14.2232 15.9107 15.308 15.1071ZM8.27678 16.4732C8.27678 16.2321 8.47768 15.9911 8.75893 15.9911H11.0491C11.2902 15.9911 11.5312 16.192 11.5312 16.4732V23.8259V24.5491V25.5536C11.5312 25.7946 11.3304 26.0357 11.0491 26.0357H8.75893C8.51786 26.0357 8.27678 25.8348 8.27678 25.5536V16.4732Z" fill="#2CB2BB"/>
</svg>
